/* XPM */
static char *rgwsm_git_xpm[] = {
    "64 64 3 1",
    "0	c #FF0000",
    "1	c #000000",
    "2	c #FFFF00",
    "2222222222222222000000000000000022222222222222221111111111111111",
    "2222222222222222000000000000000022222222222222221111111111111111",
    "2222222222222222000000000000000022222222222222221111111111111111",
    "2222222222222222000000000000000022222222222222221111111111111111",
    "2222222222222222000000000000000022222222222222221111111111111111",
    "2222222222222222000000000000000022222222222222221111111111111111",
    "2222222222222222000000000000000022222222222222221111111111111111",
    "2222222222222222000000000000000022222222222222221111111111111111",
    "0000000000000000000000000000000022222222222222221111111111111111",
    "0000000000000000000000000000000022222222222222221111111111111111",
    "0000000000000000000000000000000022222222222222221111111111111111",
    "0000000000000000000000000000000022222222222222221111111111111111",
    "0000000000000000000000000000000022222222222222221111111111111111",
    "0000000000000000000000000000000022222222222222221111111111111111",
    "0000000000000000000000000000000022222222222222221111111111111111",
    "0000000000000000000000000000000022222222222222221111111111111111",
    "2222222222222222000000000000000000000000000000001111111111111111",
    "2222222222222222000000000000000000000000000000001111111111111111",
    "2222222222222222000000000000000000000000000000001111111111111111",
    "2222222222222222000000000000000000000000000000001111111111111111",
    "2222222222222222000000000000000000000000000000001111111111111111",
    "2222222222222222000000000000000000000000000000001111111111111111",
    "2222222222222222000000000000000000000000000000001111111111111111",
    "2222222222222222000000000000000000000000000000001111111111111111",
    "2222222222222222222222222222222222222222222222221111111111111111",
    "2222222222222222222222222222222222222222222222221111111111111111",
    "2222222222222222222222222222222222222222222222221111111111111111",
    "2222222222222222222222222222222222222222222222221111111111111111",
    "2222222222222222222222222222222222222222222222221111111111111111",
    "2222222222222222222222222222222222222222222222221111111111111111",
    "2222222222222222222222222222222222222222222222221111111111111111",
    "2222222222222222222222222222222222222222222222221111111111111111",
    "0000000000000000000000000000000011111111111111111111111111111111",
    "0000000000000000000000000000000011111111111111111111111111111111",
    "0000000000000000000000000000000011111111111111111111111111111111",
    "0000000000000000000000000000000011111111111111111111111111111111",
    "0000000000000000000000000000000011111111111111111111111111111111",
    "0000000000000000000000000000000011111111111111111111111111111111",
    "0000000000000000000000000000000011111111111111111111111111111111",
    "0000000000000000000000000000000011111111111111111111111111111111",
    "0000000000000000000000000000000022222222222222221111111111111111",
    "0000000000000000000000000000000022222222222222221111111111111111",
    "0000000000000000000000000000000022222222222222221111111111111111",
    "0000000000000000000000000000000022222222222222221111111111111111",
    "0000000000000000000000000000000022222222222222221111111111111111",
    "0000000000000000000000000000000022222222222222221111111111111111",
    "0000000000000000000000000000000022222222222222221111111111111111",
    "0000000000000000000000000000000022222222222222221111111111111111",
    "2222222222222222222222222222222211111111111111111111111111111111",
    "2222222222222222222222222222222211111111111111111111111111111111",
    "2222222222222222222222222222222211111111111111111111111111111111",
    "2222222222222222222222222222222211111111111111111111111111111111",
    "2222222222222222222222222222222211111111111111111111111111111111",
    "2222222222222222222222222222222211111111111111111111111111111111",
    "2222222222222222222222222222222211111111111111111111111111111111",
    "2222222222222222222222222222222211111111111111111111111111111111",
    "0000000000000000111111111111111111111111111111111111111111111111",
    "0000000000000000111111111111111111111111111111111111111111111111",
    "0000000000000000111111111111111111111111111111111111111111111111",
    "0000000000000000111111111111111111111111111111111111111111111111",
    "0000000000000000111111111111111111111111111111111111111111111111",
    "0000000000000000111111111111111111111111111111111111111111111111",
    "0000000000000000111111111111111111111111111111111111111111111111",
    "0000000000000000111111111111111111111111111111111111111111111111",
};
