/* XPM */
static char *branch_xpm[] = {
"64 64 3 1",
"A	c #000000",
"B	c #DBFFB6",
" 	c None",
"                                                                ",
"                                                                ",
"                                                                ",
"                                    A                           ",
"                                    AA                          ",
"                                    AAA                         ",
"                                    AAAA                        ",
"                                    AABAA                       ",
"                                    AABBAA                      ",
"         AAAAAAAAAAAAAAAAAAAAAAAAAAAAABBBAA                     ",
"         AAAAAAAAAAAAAAAAAAAAAAAAAAAAABBBBAA                    ",
"         AABBBBBBBBBBBBBBBBBBBBBBBBBBBBBBBBAA                   ",
"         AABBBBBBBBBBBBBBBBBBBBBBBBBBBBBBBBBAA                  ",
"         AABBBBBBBBBBBBBBBBBBBBBBBBBBBBBBBBBBAA                 ",
"         AABBBBBBBBBBBBBBBBBBBBBBBBBBBBBBBBBBBAA                ",
"         AABBBBBBBBBBBBBBBBBBBBBBBBBBBBBBBBBBAA                 ",
"         AABBBBBBBBBBBBBBBBBBBBBBBBBBBBBBBBBAA                  ",
"         AABBBBBBBBBBBBBBBBBBBBBBBBBBBBBBBBAA                   ",
"         AABBBBBBBAAAAAAAAAAAAAAAAAAAABBBBAA                    ",
"         AABBBBBBBAAAAAAAAAAAAAAAAAAAABBBAA                     ",
"         AABBBBBBBAA                AABBAA                      ",
"         AABBBBBBBAA                AABAA                       ",
"         AABBBBBBBAA                AAAA                        ",
"         AABBBBBBBAA                AAA                         ",
"         AABBBBBBBAA                AA                          ",
"         AABBBBBBBAA                A                           ",
"         AABBBBBBBAA                                            ",
"         AABBBBBBBAA                                            ",
"         AABBBBBBBAA                          A                 ",
"         AABBBBBBBAA                          AA                ",
"         AABBBBBBBAA                          AAA               ",
"         AABBBBBBBAA                          AAAA              ",
"         AABBBBBBBAA                          AABAA             ",
"         AABBBBBBBAA                          AABBAA            ",
"         AABBBBBBBAA                          AABBBAA           ",
"         AABBBBBBBAA                          AABBBBAA          ",
"         AABBBBBBBAA                          AABBBBBAA         ",
"         AABBBBBBBAA                          AABBBBBBAA        ",
"         AABBBBBBBAA                          AABBBBBBBAA       ",
" AAAAAAAAAABBBBBBBAAAAAAAAAAAAAAAAAAAAAAAAAAAAAABBBBBBBBAA      ",
" AAAAAAAAAABBBBBBBAAAAAAAAAAAAAAAAAAAAAAAAAAAAAABBBBBBBBBAA     ",
" AABBBBBBBBBBBBBBBBBBBBBBBBBBBBBBBBBBBBBBBBBBBBBBBBBBBBBBBAA    ",
" AABBBBBBBBBBBBBBBBBBBBBBBBBBBBBBBBBBBBBBBBBBBBBBBBBBBBBBBBAA   ",
" AABBBBBBBBBBBBBBBBBBBBBBBBBBBBBBBBBBBBBBBBBBBBBBBBBBBBBBBBBAA  ",
" AABBBBBBBBBBBBBBBBBBBBBBBBBBBBBBBBBBBBBBBBBBBBBBBBBBBBBBBBBBAA ",
" AABBBBBBBBBBBBBBBBBBBBBBBBBBBBBBBBBBBBBBBBBBBBBBBBBBBBBBBBBAA  ",
" AABBBBBBBBBBBBBBBBBBBBBBBBBBBBBBBBBBBBBBBBBBBBBBBBBBBBBBBBAA   ",
" AABBBBBBBBBBBBBBBBBBBBBBBBBBBBBBBBBBBBBBBBBBBBBBBBBBBBBBBAA    ",
" AABBBBBBBBBBBBBBBBBBBBBBBBBBBBBBBBBBBBBBBBBBBBBBBBBBBBBBAA     ",
" AAAAAAAAAAAAAAAAAAAAAAAAAAAAAAAAAAAAAAAAAAAAAAABBBBBBBBAA      ",
" AAAAAAAAAAAAAAAAAAAAAAAAAAAAAAAAAAAAAAAAAAAAAAABBBBBBBAA       ",
"                                              AABBBBBBAA        ",
"                                              AABBBBBAA         ",
"                                              AABBBBAA          ",
"                                              AABBBAA           ",
"                                              AABBAA            ",
"                                              AABAA             ",
"                                              AAAA              ",
"                                              AAA               ",
"                                              AA                ",
"                                              A                 ",
"                                                                ",
"                                                                ",
"                                                                ",
};
