/* XPM */
static char *stock_diff_xpm[] = {
"64 64 4 1",
"R c #FF0000",
"G c #00AA00",
"B c #000000",
"  c None",

"                                                                ",
"                                                                ",
"                                                                ",
"                                                                ",
"                                                                ",
"                                                                ",
"                                                                ",
"                                                                ",
"                                                                ",
"                                                                ",
"                                                                ",
"                                                                ",
"                                                                ",
"                                                                ",
"                                                                ",
"                                                                ",
"                                                                ",
"BBBBBBBBBBBBBBBBBBBB  BBBBBBBBBBBBBBBBBBBB  BBBBBBBBBBBBBBBBBBBB",
"BRRRRRRRRRRRRRRRRRRB  BRRRRRRRRRRRRRRRRRRB  BRRRRRRRRRRRRRRRRRRB",
"BRRRRRRRRRRRRRRRRRRB  BRRRRRRRRRRRRRRRRRRB  BRRRRRRRRRRRRRRRRRRB",
"BRRRRRRRRRRRRRRRRRRB  BRRRRRRRRRRRRRRRRRRB  BRRRRRRRRRRRRRRRRRRB",
"BRRRRRRRRRRRRRRRRRRB  BRRRRRRRRRRRRRRRRRRB  BRRRRRRRRRRRRRRRRRRB",
"BRRRRRRRRRRRRRRRRRRB  BRRRRRRRRRRRRRRRRRRB  BRRRRRRRRRRRRRRRRRRB",
"BRRRRRRRRRRRRRRRRRRB  BRRRRRRRRRRRRRRRRRRB  BRRRRRRRRRRRRRRRRRRB",
"BBBBBBBBBBBBBBBBBBBB  BBBBBBBBBBBBBBBBBBBB  BBBBBBBBBBBBBBBBBBBB",
"                                                                ",
"                                                                ",
"                                                                ",
"      BBBBBBBB              BBBBBBBB              BBBBBBBB      ",
"      BGGGGGGB              BGGGGGGB              BGGGGGGB      ",
"      BGGGGGGB              BGGGGGGB              BGGGGGGB      ",
"      BGGGGGGB              BGGGGGGB              BGGGGGGB      ",
"      BGGGGGGB              BGGGGGGB              BGGGGGGB      ",
"      BGGGGGGB              BGGGGGGB              BGGGGGGB      ",
"BBBBBBBGGGGGGBBBBBBB  BBBBBBBGGGGGGBBBBBBB  BBBBBBBGGGGGGBBBBBBB",
"BGGGGGGGGGGGGGGGGGGB  BGGGGGGGGGGGGGGGGGGB  BGGGGGGGGGGGGGGGGGGB",
"BGGGGGGGGGGGGGGGGGGB  BGGGGGGGGGGGGGGGGGGB  BGGGGGGGGGGGGGGGGGGB",
"BGGGGGGGGGGGGGGGGGGB  BGGGGGGGGGGGGGGGGGGB  BGGGGGGGGGGGGGGGGGGB",
"BGGGGGGGGGGGGGGGGGGB  BGGGGGGGGGGGGGGGGGGB  BGGGGGGGGGGGGGGGGGGB",
"BGGGGGGGGGGGGGGGGGGB  BGGGGGGGGGGGGGGGGGGB  BGGGGGGGGGGGGGGGGGGB",
"BBBBBBBGGGGGGBBBBBBB  BBBBBBBGGGGGGBBBBBBB  BBBBBBBGGGGGGBBBBBBB",
"      BGGGGGGB              BGGGGGGB              BGGGGGGB      ",
"      BGGGGGGB              BGGGGGGB              BGGGGGGB      ",
"      BGGGGGGB              BGGGGGGB              BGGGGGGB      ",
"      BGGGGGGB              BGGGGGGB              BGGGGGGB      ",
"      BGGGGGGB              BGGGGGGB              BGGGGGGB      ",
"      BBBBBBBB              BBBBBBBB              BBBBBBBB      ",
"                                                                ",
"                                                                ",
"                                                                ",
"                                                                ",
"                                                                ",
"                                                                ",
"                                                                ",
"                                                                ",
"                                                                ",
"                                                                ",
"                                                                ",
"                                                                ",
"                                                                ",
"                                                                ",
"                                                                ",
"                                                                ",
"                                                                "
};
